<mxfile host="app.diagrams.net" modified="2023-08-25T22:18:18.603Z" agent="Mozilla/5.0 (Windows NT 10.0; Win64; x64) AppleWebKit/537.36 (KHTML, like Gecko) Chrome/115.0.0.0 Safari/537.36" etag="D2R6dK-GBpBXhnUnBhY9" version="21.6.9" type="device">
  <diagram id="C5RBs43oDa-KdzZeNtuy" name="Page-1">
    <mxGraphModel dx="12528" dy="8140" grid="0" gridSize="1" guides="1" tooltips="1" connect="1" arrows="1" fold="1" page="1" pageScale="1" pageWidth="827" pageHeight="1169" math="0" shadow="0">
      <root>
        <mxCell id="WIyWlLk6GJQsqaUBKTNV-0" />
        <mxCell id="WIyWlLk6GJQsqaUBKTNV-1" parent="WIyWlLk6GJQsqaUBKTNV-0" />
        <mxCell id="xALUO3HwdJlkxT8yfgA3-7" value="&lt;font style=&quot;font-size: 200px;&quot;&gt;User&lt;/font&gt;" style="rounded=0;whiteSpace=wrap;html=1;strokeWidth=8;fontFamily=TH Sarabun New;fontSize=108;fontStyle=1" parent="WIyWlLk6GJQsqaUBKTNV-1" vertex="1">
          <mxGeometry x="-3666" y="-3251" width="5017" height="220" as="geometry" />
        </mxCell>
        <mxCell id="xALUO3HwdJlkxT8yfgA3-140" value="" style="endArrow=none;html=1;rounded=0;entryX=0;entryY=1;entryDx=0;entryDy=0;strokeWidth=8;fontFamily=TH Sarabun New;fontSize=108;fontStyle=1" parent="WIyWlLk6GJQsqaUBKTNV-1" target="xALUO3HwdJlkxT8yfgA3-7" edge="1">
          <mxGeometry width="50" height="50" relative="1" as="geometry">
            <mxPoint x="-3666" y="12676" as="sourcePoint" />
            <mxPoint x="1050" y="350" as="targetPoint" />
          </mxGeometry>
        </mxCell>
        <mxCell id="xALUO3HwdJlkxT8yfgA3-143" value="" style="endArrow=none;html=1;rounded=0;strokeWidth=8;fontFamily=TH Sarabun New;fontSize=108;fontStyle=1;entryX=1;entryY=1;entryDx=0;entryDy=0;" parent="WIyWlLk6GJQsqaUBKTNV-1" target="xALUO3HwdJlkxT8yfgA3-7" edge="1">
          <mxGeometry width="50" height="50" relative="1" as="geometry">
            <mxPoint x="1301" y="12670" as="sourcePoint" />
            <mxPoint x="1424" y="-868" as="targetPoint" />
          </mxGeometry>
        </mxCell>
        <mxCell id="xALUO3HwdJlkxT8yfgA3-180" value="" style="ellipse;whiteSpace=wrap;html=1;aspect=fixed;fillColor=#000000;strokeWidth=8;fontFamily=TH Sarabun New;fontSize=108;fontStyle=1" parent="WIyWlLk6GJQsqaUBKTNV-1" vertex="1">
          <mxGeometry x="-1459.25" y="-2965" width="142.5" height="142.5" as="geometry" />
        </mxCell>
        <mxCell id="xALUO3HwdJlkxT8yfgA3-182" value="" style="endArrow=classic;html=1;rounded=0;exitX=0.5;exitY=1;exitDx=0;exitDy=0;strokeWidth=8;entryX=0.5;entryY=0;entryDx=0;entryDy=0;fontSize=108;fontFamily=TH Sarabun New;fontStyle=1" parent="WIyWlLk6GJQsqaUBKTNV-1" source="xALUO3HwdJlkxT8yfgA3-180" target="kMTiL7KlNKNhmvtmHJj9-7" edge="1">
          <mxGeometry width="50" height="50" relative="1" as="geometry">
            <mxPoint x="-1437.25" y="-2725" as="sourcePoint" />
            <mxPoint x="-1446" y="-2795" as="targetPoint" />
          </mxGeometry>
        </mxCell>
        <mxCell id="TLsUlpolCmr_xRNrr_nB-163" value="" style="endArrow=none;html=1;rounded=0;strokeWidth=8;fontFamily=TH Sarabun New;fontSize=108;fontStyle=1" parent="WIyWlLk6GJQsqaUBKTNV-1" edge="1">
          <mxGeometry width="50" height="50" relative="1" as="geometry">
            <mxPoint x="-3642" y="12704" as="sourcePoint" />
            <mxPoint x="1301" y="12690" as="targetPoint" />
          </mxGeometry>
        </mxCell>
        <mxCell id="DPmiUBUVIQ52UmBGNhwR-1" value="" style="endArrow=none;html=1;rounded=0;strokeWidth=8;fontFamily=TH Sarabun New;fontSize=108;fontStyle=1" parent="WIyWlLk6GJQsqaUBKTNV-1" edge="1">
          <mxGeometry width="50" height="50" relative="1" as="geometry">
            <mxPoint x="-2735" y="-807" as="sourcePoint" />
            <mxPoint x="975" y="-807" as="targetPoint" />
          </mxGeometry>
        </mxCell>
        <mxCell id="DPmiUBUVIQ52UmBGNhwR-4" value="" style="endArrow=none;html=1;rounded=0;strokeWidth=8;fontSize=108;fontFamily=TH Sarabun New;fontStyle=1" parent="WIyWlLk6GJQsqaUBKTNV-1" edge="1">
          <mxGeometry width="50" height="50" relative="1" as="geometry">
            <mxPoint x="972" y="7125" as="sourcePoint" />
            <mxPoint x="992" y="-796" as="targetPoint" />
          </mxGeometry>
        </mxCell>
        <mxCell id="kMTiL7KlNKNhmvtmHJj9-3" value="user เลือกช่วงสัปดาห์ที่ต้องการจอง" style="rounded=0;whiteSpace=wrap;html=1;strokeWidth=8;fontSize=150;fontFamily=TH Sarabun New;fontStyle=1" vertex="1" parent="WIyWlLk6GJQsqaUBKTNV-1">
          <mxGeometry x="-1980" y="-2039" width="1184" height="418" as="geometry" />
        </mxCell>
        <mxCell id="kMTiL7KlNKNhmvtmHJj9-4" value="user เลือกชนิดห้องเเละความจุ" style="rounded=0;whiteSpace=wrap;html=1;strokeWidth=8;fontSize=150;fontFamily=TH Sarabun New;fontStyle=1" vertex="1" parent="WIyWlLk6GJQsqaUBKTNV-1">
          <mxGeometry x="-1973" y="-1411" width="1170" height="457" as="geometry" />
        </mxCell>
        <mxCell id="kMTiL7KlNKNhmvtmHJj9-6" value="&lt;p style=&quot;font-size: 150px;&quot; class=&quot;MsoNormal&quot;&gt;อาจารย์เลือกวันและเวลา&lt;span style=&quot;background-color: initial; font-size: 150px;&quot;&gt;ที่ต้องการจอง&lt;/span&gt;&lt;/p&gt;&lt;p style=&quot;font-size: 150px;&quot; class=&quot;MsoNormal&quot;&gt;&lt;span style=&quot;font-size: 150px;&quot;&gt;&lt;/span&gt;&lt;/p&gt;" style="rounded=0;whiteSpace=wrap;html=1;strokeWidth=8;fontSize=150;fontFamily=TH Sarabun New;fontStyle=1" vertex="1" parent="WIyWlLk6GJQsqaUBKTNV-1">
          <mxGeometry x="-850" y="9167" width="990" height="498" as="geometry" />
        </mxCell>
        <mxCell id="kMTiL7KlNKNhmvtmHJj9-7" value="user เลือกคอร์สเรียนที่จะทำการจองห้องเพิ่มเติม" style="rounded=0;whiteSpace=wrap;html=1;strokeWidth=8;fontSize=150;fontFamily=TH Sarabun New;fontStyle=1" vertex="1" parent="WIyWlLk6GJQsqaUBKTNV-1">
          <mxGeometry x="-2020.25" y="-2694" width="1258" height="486" as="geometry" />
        </mxCell>
        <mxCell id="kMTiL7KlNKNhmvtmHJj9-8" value="&lt;font style=&quot;font-size: 150px;&quot;&gt;&lt;font style=&quot;font-size: 150px;&quot;&gt;Database&amp;nbsp;&lt;br style=&quot;font-size: 150px;&quot;&gt;RoomType,&lt;br style=&quot;font-size: 150px;&quot;&gt;Room&lt;br style=&quot;font-size: 150px;&quot;&gt;&lt;/font&gt;&lt;/font&gt;" style="shape=cylinder3;whiteSpace=wrap;html=1;boundedLbl=1;backgroundOutline=1;size=15;strokeWidth=8;fontSize=150;fontFamily=TH Sarabun New;fontStyle=1" vertex="1" parent="WIyWlLk6GJQsqaUBKTNV-1">
          <mxGeometry x="-102" y="-1488" width="862" height="587.12" as="geometry" />
        </mxCell>
        <mxCell id="kMTiL7KlNKNhmvtmHJj9-9" value="" style="endArrow=classic;html=1;rounded=0;dashed=1;entryX=1;entryY=0.5;entryDx=0;entryDy=0;exitX=0;exitY=0.5;exitDx=0;exitDy=0;exitPerimeter=0;strokeWidth=8;fontSize=150;fontFamily=TH Sarabun New;fontStyle=1" edge="1" parent="WIyWlLk6GJQsqaUBKTNV-1" source="kMTiL7KlNKNhmvtmHJj9-8" target="kMTiL7KlNKNhmvtmHJj9-4">
          <mxGeometry width="50" height="50" relative="1" as="geometry">
            <mxPoint x="-659" y="-1825" as="sourcePoint" />
            <mxPoint x="-951" y="-1825" as="targetPoint" />
          </mxGeometry>
        </mxCell>
        <mxCell id="kMTiL7KlNKNhmvtmHJj9-24" value="&lt;p style=&quot;font-size: 150px;&quot; class=&quot;MsoNormal&quot;&gt;ระบบดึงข้อมูลคอร์สปัจจุบันที่&lt;span style=&quot;background-color: initial; font-size: 150px;&quot;&gt;อาจารย์มีสอนทั้งหมด&lt;/span&gt;&lt;/p&gt;&lt;p style=&quot;text-align: justify; font-size: 150px;&quot; class=&quot;MsoNormal&quot;&gt;&lt;span style=&quot;font-size: 150px;&quot;&gt;&lt;/span&gt;&lt;/p&gt;" style="rounded=0;whiteSpace=wrap;html=1;strokeWidth=8;fontSize=150;fontFamily=TH Sarabun New;fontStyle=1" vertex="1" parent="WIyWlLk6GJQsqaUBKTNV-1">
          <mxGeometry x="-1961.75" y="-681" width="1141" height="451" as="geometry" />
        </mxCell>
        <mxCell id="kMTiL7KlNKNhmvtmHJj9-25" value="&lt;font style=&quot;font-size: 150px;&quot;&gt;&lt;font style=&quot;font-size: 150px;&quot;&gt;Database&amp;nbsp;&lt;br style=&quot;font-size: 150px;&quot;&gt;Course,&lt;br style=&quot;font-size: 150px;&quot;&gt;Teach&lt;br style=&quot;font-size: 150px;&quot;&gt;&lt;/font&gt;&lt;/font&gt;" style="shape=cylinder3;whiteSpace=wrap;html=1;boundedLbl=1;backgroundOutline=1;size=15;strokeWidth=8;fontSize=150;fontFamily=TH Sarabun New;fontStyle=1" vertex="1" parent="WIyWlLk6GJQsqaUBKTNV-1">
          <mxGeometry x="-116" y="-716" width="866" height="528.87" as="geometry" />
        </mxCell>
        <mxCell id="kMTiL7KlNKNhmvtmHJj9-26" value="" style="endArrow=classic;html=1;rounded=0;dashed=1;entryX=1;entryY=0.5;entryDx=0;entryDy=0;exitX=0;exitY=0.5;exitDx=0;exitDy=0;exitPerimeter=0;strokeWidth=8;fontSize=150;fontFamily=TH Sarabun New;fontStyle=1" edge="1" parent="WIyWlLk6GJQsqaUBKTNV-1" source="kMTiL7KlNKNhmvtmHJj9-25" target="kMTiL7KlNKNhmvtmHJj9-24">
          <mxGeometry width="50" height="50" relative="1" as="geometry">
            <mxPoint x="-163" y="-158" as="sourcePoint" />
            <mxPoint x="-533" y="-158" as="targetPoint" />
          </mxGeometry>
        </mxCell>
        <mxCell id="kMTiL7KlNKNhmvtmHJj9-27" value="&lt;p style=&quot;font-size: 150px;&quot; class=&quot;MsoNormal&quot;&gt;ระบบดึงข้อมูลการจองห้อง&lt;span style=&quot;background-color: initial; font-size: 150px;&quot;&gt;เพิ่มเติม&lt;/span&gt;&lt;span style=&quot;background-color: initial; font-size: 150px;&quot;&gt;ของ&lt;/span&gt;&lt;span style=&quot;background-color: initial; font-size: 150px;&quot;&gt;อาจารย์&lt;/span&gt;&lt;span style=&quot;background-color: initial; font-size: 150px;&quot;&gt;ในช่วงสัปดาห์ที่อาจารย์ระบุ&lt;/span&gt;&lt;/p&gt;&lt;p style=&quot;text-align: justify; font-size: 150px;&quot; class=&quot;MsoNormal&quot;&gt;&lt;span style=&quot;font-size: 150px;&quot;&gt;&lt;/span&gt;&lt;/p&gt;" style="rounded=0;whiteSpace=wrap;html=1;strokeWidth=8;fontSize=150;fontFamily=TH Sarabun New;fontStyle=1" vertex="1" parent="WIyWlLk6GJQsqaUBKTNV-1">
          <mxGeometry x="-2200.37" y="-102" width="1624.75" height="586" as="geometry" />
        </mxCell>
        <mxCell id="kMTiL7KlNKNhmvtmHJj9-28" value="&lt;font style=&quot;font-size: 150px;&quot;&gt;&lt;font style=&quot;font-size: 150px;&quot;&gt;Database&amp;nbsp;&lt;br style=&quot;font-size: 150px;&quot;&gt;Reservation,&lt;br style=&quot;font-size: 150px;&quot;&gt;Reservation_detail&lt;br style=&quot;font-size: 150px;&quot;&gt;&lt;/font&gt;&lt;/font&gt;" style="shape=cylinder3;whiteSpace=wrap;html=1;boundedLbl=1;backgroundOutline=1;size=15;strokeWidth=8;fontSize=150;fontFamily=TH Sarabun New;fontStyle=1" vertex="1" parent="WIyWlLk6GJQsqaUBKTNV-1">
          <mxGeometry x="-110" y="-77.87" width="888" height="537.75" as="geometry" />
        </mxCell>
        <mxCell id="kMTiL7KlNKNhmvtmHJj9-29" value="" style="endArrow=classic;html=1;rounded=0;dashed=1;entryX=1;entryY=0.5;entryDx=0;entryDy=0;exitX=0;exitY=0.5;exitDx=0;exitDy=0;exitPerimeter=0;strokeWidth=8;fontSize=150;fontFamily=TH Sarabun New;fontStyle=1" edge="1" parent="WIyWlLk6GJQsqaUBKTNV-1" source="kMTiL7KlNKNhmvtmHJj9-28" target="kMTiL7KlNKNhmvtmHJj9-27">
          <mxGeometry width="50" height="50" relative="1" as="geometry">
            <mxPoint x="-313" y="407" as="sourcePoint" />
            <mxPoint x="-683" y="407" as="targetPoint" />
          </mxGeometry>
        </mxCell>
        <mxCell id="kMTiL7KlNKNhmvtmHJj9-30" value="&lt;p style=&quot;font-size: 150px;&quot; class=&quot;MsoNormal&quot;&gt;&lt;font style=&quot;font-size: 150px;&quot;&gt;ระบบดึงข้อมูลนักศึกษาที่&lt;/font&gt;&lt;span style=&quot;background-color: initial; font-size: 150px;&quot;&gt;ลงทะเบียนเรียนในคอร์ส&lt;/span&gt;&lt;span style=&quot;background-color: initial; font-size: 150px;&quot;&gt;ทั้งหมด&lt;/span&gt;&lt;/p&gt;&lt;p style=&quot;text-align: justify; font-size: 150px;&quot; class=&quot;MsoNormal&quot;&gt;&lt;span style=&quot;font-size: 150px;&quot;&gt;&lt;/span&gt;&lt;/p&gt;" style="rounded=0;whiteSpace=wrap;html=1;strokeWidth=8;fontSize=150;fontFamily=TH Sarabun New;fontStyle=1" vertex="1" parent="WIyWlLk6GJQsqaUBKTNV-1">
          <mxGeometry x="-2009.9899999999998" y="635" width="1244" height="459" as="geometry" />
        </mxCell>
        <mxCell id="kMTiL7KlNKNhmvtmHJj9-31" value="&lt;font style=&quot;font-size: 150px;&quot;&gt;&lt;font style=&quot;font-size: 150px;&quot;&gt;Database&amp;nbsp;&lt;br style=&quot;font-size: 150px;&quot;&gt;STD_REG_COURSE&lt;br style=&quot;font-size: 150px;&quot;&gt;&lt;/font&gt;&lt;/font&gt;" style="shape=cylinder3;whiteSpace=wrap;html=1;boundedLbl=1;backgroundOutline=1;size=15;strokeWidth=8;fontSize=150;fontFamily=TH Sarabun New;fontStyle=1" vertex="1" parent="WIyWlLk6GJQsqaUBKTNV-1">
          <mxGeometry x="-110" y="651" width="927" height="435" as="geometry" />
        </mxCell>
        <mxCell id="kMTiL7KlNKNhmvtmHJj9-32" value="" style="endArrow=classic;html=1;rounded=0;dashed=1;entryX=1;entryY=0.5;entryDx=0;entryDy=0;exitX=0;exitY=0.5;exitDx=0;exitDy=0;exitPerimeter=0;strokeWidth=8;fontSize=150;fontFamily=TH Sarabun New;fontStyle=1" edge="1" parent="WIyWlLk6GJQsqaUBKTNV-1" source="kMTiL7KlNKNhmvtmHJj9-31" target="kMTiL7KlNKNhmvtmHJj9-30">
          <mxGeometry width="50" height="50" relative="1" as="geometry">
            <mxPoint x="-163" y="1062" as="sourcePoint" />
            <mxPoint x="-533" y="1062" as="targetPoint" />
          </mxGeometry>
        </mxCell>
        <mxCell id="kMTiL7KlNKNhmvtmHJj9-33" value="&lt;p style=&quot;font-size: 150px;&quot; class=&quot;MsoNormal&quot;&gt;ระบบดึงข้อมูลการจองห้องเรียนเพิ่มเติม&lt;span style=&quot;background-color: initial; font-size: 150px;&quot;&gt;ของ&lt;/span&gt;&lt;span style=&quot;background-color: initial; font-size: 150px;&quot;&gt;นักศึกษาทุกคน&lt;/span&gt;&lt;span style=&quot;background-color: initial; font-size: 150px;&quot;&gt;ในช่วงสัปดาห์ที่อาจารย์ระบุ&lt;/span&gt;&lt;/p&gt;&lt;p style=&quot;text-align: justify; font-size: 150px;&quot; class=&quot;MsoNormal&quot;&gt;&lt;span style=&quot;font-size: 150px;&quot;&gt;&lt;/span&gt;&lt;/p&gt;" style="rounded=0;whiteSpace=wrap;html=1;strokeWidth=8;fontSize=150;fontFamily=TH Sarabun New;fontStyle=1" vertex="1" parent="WIyWlLk6GJQsqaUBKTNV-1">
          <mxGeometry x="-2134" y="1311" width="1497.5" height="566" as="geometry" />
        </mxCell>
        <mxCell id="kMTiL7KlNKNhmvtmHJj9-34" value="&lt;font style=&quot;font-size: 150px;&quot;&gt;&lt;font style=&quot;font-size: 150px;&quot;&gt;Database&amp;nbsp;&lt;br style=&quot;font-size: 150px;&quot;&gt;Reservation,&lt;br style=&quot;font-size: 150px;&quot;&gt;Reservation_detail,&lt;br style=&quot;font-size: 150px;&quot;&gt;STD_REG_COURSE&lt;br style=&quot;font-size: 150px;&quot;&gt;&lt;/font&gt;&lt;/font&gt;" style="shape=cylinder3;whiteSpace=wrap;html=1;boundedLbl=1;backgroundOutline=1;size=15;strokeWidth=8;fontSize=150;fontFamily=TH Sarabun New;fontStyle=1" vertex="1" parent="WIyWlLk6GJQsqaUBKTNV-1">
          <mxGeometry x="-151.5" y="1237" width="1010" height="702" as="geometry" />
        </mxCell>
        <mxCell id="kMTiL7KlNKNhmvtmHJj9-35" value="" style="endArrow=classic;html=1;rounded=0;dashed=1;entryX=1;entryY=0.5;entryDx=0;entryDy=0;exitX=0;exitY=0.5;exitDx=0;exitDy=0;exitPerimeter=0;strokeWidth=8;fontSize=150;fontFamily=TH Sarabun New;fontStyle=1" edge="1" parent="WIyWlLk6GJQsqaUBKTNV-1" source="kMTiL7KlNKNhmvtmHJj9-34" target="kMTiL7KlNKNhmvtmHJj9-33">
          <mxGeometry width="50" height="50" relative="1" as="geometry">
            <mxPoint x="-350" y="2663" as="sourcePoint" />
            <mxPoint x="-720" y="2663" as="targetPoint" />
          </mxGeometry>
        </mxCell>
        <mxCell id="kMTiL7KlNKNhmvtmHJj9-37" value="&lt;font style=&quot;font-size: 150px;&quot;&gt;&lt;font style=&quot;font-size: 150px;&quot;&gt;Database&amp;nbsp;&lt;br style=&quot;border-color: var(--border-color); font-size: 150px;&quot;&gt;RoomType,&lt;br style=&quot;border-color: var(--border-color); font-size: 150px;&quot;&gt;Room&lt;br style=&quot;font-size: 150px;&quot;&gt;&lt;/font&gt;&lt;/font&gt;" style="shape=cylinder3;whiteSpace=wrap;html=1;boundedLbl=1;backgroundOutline=1;size=15;strokeWidth=8;fontSize=150;fontFamily=TH Sarabun New;fontStyle=1" vertex="1" parent="WIyWlLk6GJQsqaUBKTNV-1">
          <mxGeometry x="-82" y="2994.5" width="936" height="524" as="geometry" />
        </mxCell>
        <mxCell id="kMTiL7KlNKNhmvtmHJj9-38" value="" style="endArrow=classic;html=1;rounded=0;dashed=1;entryX=1;entryY=0.5;entryDx=0;entryDy=0;exitX=0;exitY=0.5;exitDx=0;exitDy=0;exitPerimeter=0;strokeWidth=8;fontSize=150;fontFamily=TH Sarabun New;fontStyle=1" edge="1" parent="WIyWlLk6GJQsqaUBKTNV-1" source="kMTiL7KlNKNhmvtmHJj9-37" target="kMTiL7KlNKNhmvtmHJj9-95">
          <mxGeometry width="50" height="50" relative="1" as="geometry">
            <mxPoint x="-270" y="4058" as="sourcePoint" />
            <mxPoint x="-825" y="3537" as="targetPoint" />
          </mxGeometry>
        </mxCell>
        <mxCell id="kMTiL7KlNKNhmvtmHJj9-39" value="&lt;p style=&quot;font-size: 150px;&quot; class=&quot;MsoNormal&quot;&gt;ระบบดึงข้อมูลการใช้ห้องเรียน&lt;span style=&quot;background-color: initial; font-size: 150px;&quot;&gt;ตามตารางสอนปกติ&lt;/span&gt;&lt;span style=&quot;background-color: initial; font-size: 150px;&quot;&gt;ของห้องเรียน&lt;/span&gt;&lt;/p&gt;&lt;p style=&quot;text-align: justify; font-size: 150px;&quot; class=&quot;MsoNormal&quot;&gt;&lt;span style=&quot;font-size: 150px;&quot;&gt;&lt;/span&gt;&lt;/p&gt;" style="rounded=0;whiteSpace=wrap;html=1;strokeWidth=8;fontSize=150;fontFamily=TH Sarabun New;fontStyle=1" vertex="1" parent="WIyWlLk6GJQsqaUBKTNV-1">
          <mxGeometry x="-2093" y="3752" width="1411" height="421" as="geometry" />
        </mxCell>
        <mxCell id="kMTiL7KlNKNhmvtmHJj9-40" value="&lt;font style=&quot;font-size: 150px;&quot;&gt;&lt;font style=&quot;font-size: 150px;&quot;&gt;Database&amp;nbsp;&lt;br style=&quot;font-size: 150px;&quot;&gt;Course&lt;br style=&quot;font-size: 150px;&quot;&gt;&lt;/font&gt;&lt;/font&gt;" style="shape=cylinder3;whiteSpace=wrap;html=1;boundedLbl=1;backgroundOutline=1;size=15;strokeWidth=8;fontSize=150;fontFamily=TH Sarabun New;fontStyle=1" vertex="1" parent="WIyWlLk6GJQsqaUBKTNV-1">
          <mxGeometry x="-61" y="3731" width="886" height="449" as="geometry" />
        </mxCell>
        <mxCell id="kMTiL7KlNKNhmvtmHJj9-41" value="" style="endArrow=classic;html=1;rounded=0;dashed=1;entryX=1;entryY=0.5;entryDx=0;entryDy=0;exitX=0;exitY=0.5;exitDx=0;exitDy=0;exitPerimeter=0;strokeWidth=8;fontSize=150;fontFamily=TH Sarabun New;fontStyle=1" edge="1" parent="WIyWlLk6GJQsqaUBKTNV-1" source="kMTiL7KlNKNhmvtmHJj9-40" target="kMTiL7KlNKNhmvtmHJj9-39">
          <mxGeometry width="50" height="50" relative="1" as="geometry">
            <mxPoint x="-420" y="4623" as="sourcePoint" />
            <mxPoint x="-790" y="4623" as="targetPoint" />
          </mxGeometry>
        </mxCell>
        <mxCell id="kMTiL7KlNKNhmvtmHJj9-43" value="&lt;p style=&quot;font-size: 150px;&quot; class=&quot;MsoNormal&quot;&gt;ระบบดึงข้อมูลการใช้ห้องเรียนเพิ่มเติมจากการจองห้อง&amp;nbsp;&lt;span style=&quot;background-color: initial; font-size: 150px;&quot;&gt;ของ&lt;/span&gt;&lt;span style=&quot;background-color: initial; font-size: 150px;&quot;&gt;ห้องเรียนทั้งหมด&lt;/span&gt;&lt;span style=&quot;background-color: initial; font-size: 150px;&quot;&gt;ที่ตรงกับชนิดห้องเเละความจุ&lt;/span&gt;&lt;span style=&quot;background-color: initial; font-size: 150px;&quot;&gt;ในช่วงสัปดาห์ที่อาจารย์ระบุ&lt;/span&gt;&lt;/p&gt;&lt;p style=&quot;text-align: justify; font-size: 150px;&quot; class=&quot;MsoNormal&quot;&gt;&lt;span style=&quot;font-size: 150px;&quot;&gt;&lt;/span&gt;&lt;/p&gt;" style="rounded=0;whiteSpace=wrap;html=1;strokeWidth=8;fontSize=150;fontFamily=TH Sarabun New;fontStyle=1" vertex="1" parent="WIyWlLk6GJQsqaUBKTNV-1">
          <mxGeometry x="-2385.76" y="4350" width="1989.01" height="552.5" as="geometry" />
        </mxCell>
        <mxCell id="kMTiL7KlNKNhmvtmHJj9-44" value="&lt;font style=&quot;font-size: 150px;&quot;&gt;&lt;font style=&quot;font-size: 150px;&quot;&gt;Database&amp;nbsp;&lt;br style=&quot;font-size: 150px;&quot;&gt;Reservation,&lt;br style=&quot;font-size: 150px;&quot;&gt;Reservation_detail,&lt;br style=&quot;font-size: 150px;&quot;&gt;STD_REG_COURSE&lt;br style=&quot;font-size: 150px;&quot;&gt;&lt;/font&gt;&lt;/font&gt;" style="shape=cylinder3;whiteSpace=wrap;html=1;boundedLbl=1;backgroundOutline=1;size=15;strokeWidth=8;fontSize=150;fontFamily=TH Sarabun New;fontStyle=1" vertex="1" parent="WIyWlLk6GJQsqaUBKTNV-1">
          <mxGeometry x="-151.5" y="4290" width="1061" height="689" as="geometry" />
        </mxCell>
        <mxCell id="kMTiL7KlNKNhmvtmHJj9-45" value="" style="endArrow=classic;html=1;rounded=0;dashed=1;entryX=1;entryY=0.5;entryDx=0;entryDy=0;exitX=0;exitY=0.5;exitDx=0;exitDy=0;exitPerimeter=0;strokeWidth=8;fontSize=150;fontFamily=TH Sarabun New;fontStyle=1" edge="1" parent="WIyWlLk6GJQsqaUBKTNV-1" source="kMTiL7KlNKNhmvtmHJj9-44" target="kMTiL7KlNKNhmvtmHJj9-43">
          <mxGeometry width="50" height="50" relative="1" as="geometry">
            <mxPoint x="-400" y="5144.5" as="sourcePoint" />
            <mxPoint x="-770" y="5144.5" as="targetPoint" />
          </mxGeometry>
        </mxCell>
        <mxCell id="kMTiL7KlNKNhmvtmHJj9-46" value="&lt;p style=&quot;font-size: 150px;&quot; class=&quot;MsoNormal&quot;&gt;ระบบสร้าง array 2 มิติ เก็บผลลัพธ์&lt;span style=&quot;background-color: initial; font-size: 150px;&quot;&gt;วันเเละเวลาที่ได้จากการหาวันที่อาจารย์เเละนักศึกษาในคอร์สว่างตรงกัน&lt;/span&gt;&lt;/p&gt;&lt;p style=&quot;text-align: justify; font-size: 150px;&quot; class=&quot;MsoNormal&quot;&gt;&lt;span style=&quot;font-size: 150px;&quot;&gt;&lt;/span&gt;&lt;/p&gt;" style="rounded=0;whiteSpace=wrap;html=1;strokeWidth=8;fontSize=150;fontFamily=TH Sarabun New;fontStyle=1" vertex="1" parent="WIyWlLk6GJQsqaUBKTNV-1">
          <mxGeometry x="-2057.5" y="2118" width="1340" height="713" as="geometry" />
        </mxCell>
        <mxCell id="kMTiL7KlNKNhmvtmHJj9-48" value="&lt;p style=&quot;font-size: 150px;&quot; class=&quot;MsoNormal&quot;&gt;ระบบนำ array 2 มิติ ผลลัพธ์&lt;span style=&quot;background-color: initial;&quot;&gt;วันเเละเวลาที่ได้จากการหาวันที่อาจารย์เเละนักศึกษาในคอร์สว่างตรงกัน&lt;/span&gt;&lt;span style=&quot;background-color: initial;&quot;&gt;เเละ&lt;/span&gt;&lt;span style=&quot;background-color: initial;&quot;&gt;นำ array 2 มิติ ผลลัพธ์วันเเละเวลา&lt;/span&gt;&lt;span style=&quot;background-color: initial;&quot;&gt;ที่ได้จากการหาวันที่&lt;/span&gt;&lt;span style=&quot;background-color: initial;&quot;&gt;ห้องเรียนทั้งหมด&lt;/span&gt;&lt;span style=&quot;background-color: initial; border-color: var(--border-color);&quot;&gt;ที่ตรงกับชนิดห้องเเละความจุมา&lt;/span&gt;&lt;span style=&quot;background-color: initial;&quot;&gt;ทำการเทียบหรือ OR กันจึงได้ผลลัพธ์&lt;/span&gt;&lt;/p&gt;&lt;p style=&quot;text-align: justify; font-size: 108px;&quot; class=&quot;MsoNormal&quot;&gt;&lt;span style=&quot;font-size: 108px;&quot;&gt;&lt;/span&gt;&lt;/p&gt;" style="rounded=0;whiteSpace=wrap;html=1;strokeWidth=8;fontSize=108;fontFamily=TH Sarabun New;fontStyle=1" vertex="1" parent="WIyWlLk6GJQsqaUBKTNV-1">
          <mxGeometry x="-2562" y="5978" width="2334" height="955" as="geometry" />
        </mxCell>
        <mxCell id="kMTiL7KlNKNhmvtmHJj9-49" value="&lt;p style=&quot;font-size: 108px;&quot; class=&quot;MsoNormal&quot;&gt;&lt;/p&gt;&lt;font style=&quot;font-size: 150px;&quot;&gt;ระบบเเสดงผลลัพธ์วันเเละเวลาที่ห้องทั้งหมดว่างในช่วงสัปดาห์ที่อาจารย์ระบุให้อาจารย์ทำการเลือกจอง&lt;/font&gt;&lt;p style=&quot;text-align: justify; font-size: 108px;&quot; class=&quot;MsoNormal&quot;&gt;&lt;/p&gt;" style="rounded=0;whiteSpace=wrap;html=1;strokeWidth=8;fontSize=108;fontFamily=TH Sarabun New;fontStyle=1" vertex="1" parent="WIyWlLk6GJQsqaUBKTNV-1">
          <mxGeometry x="-2284" y="7349" width="1688" height="584" as="geometry" />
        </mxCell>
        <mxCell id="kMTiL7KlNKNhmvtmHJj9-50" value="" style="endArrow=classic;html=1;rounded=0;exitX=0;exitY=0.5;exitDx=0;exitDy=0;strokeWidth=8;entryX=0;entryY=0.5;entryDx=0;entryDy=0;fontSize=108;fontFamily=TH Sarabun New;fontStyle=1" edge="1" parent="WIyWlLk6GJQsqaUBKTNV-1" source="kMTiL7KlNKNhmvtmHJj9-62" target="kMTiL7KlNKNhmvtmHJj9-57">
          <mxGeometry width="50" height="50" relative="1" as="geometry">
            <mxPoint x="-1649.2500000000005" y="9319" as="sourcePoint" />
            <mxPoint x="-1520" y="10741" as="targetPoint" />
            <Array as="points">
              <mxPoint x="-2673" y="8689" />
              <mxPoint x="-2687" y="10741" />
            </Array>
          </mxGeometry>
        </mxCell>
        <mxCell id="kMTiL7KlNKNhmvtmHJj9-51" value="" style="endArrow=classic;html=1;rounded=0;exitX=1;exitY=0.5;exitDx=0;exitDy=0;strokeWidth=8;fontSize=150;fontFamily=TH Sarabun New;fontStyle=1;entryX=0.5;entryY=0;entryDx=0;entryDy=0;" edge="1" parent="WIyWlLk6GJQsqaUBKTNV-1" source="kMTiL7KlNKNhmvtmHJj9-62" target="kMTiL7KlNKNhmvtmHJj9-6">
          <mxGeometry width="50" height="50" relative="1" as="geometry">
            <mxPoint x="-1440.7500000000005" y="9319" as="sourcePoint" />
            <mxPoint x="-510" y="9201" as="targetPoint" />
            <Array as="points">
              <mxPoint x="-350" y="8682" />
            </Array>
          </mxGeometry>
        </mxCell>
        <mxCell id="kMTiL7KlNKNhmvtmHJj9-54" value="&lt;font style=&quot;font-size: 150px;&quot;&gt;F&lt;/font&gt;" style="text;html=1;align=center;verticalAlign=middle;resizable=0;points=[];autosize=1;strokeColor=none;fillColor=none;strokeWidth=8;fontSize=150;fontFamily=TH Sarabun New;fontStyle=1" vertex="1" parent="WIyWlLk6GJQsqaUBKTNV-1">
          <mxGeometry x="-2551" y="8277" width="72" height="192" as="geometry" />
        </mxCell>
        <mxCell id="kMTiL7KlNKNhmvtmHJj9-55" value="&lt;font style=&quot;font-size: 150px;&quot;&gt;T&lt;/font&gt;" style="text;html=1;align=center;verticalAlign=middle;resizable=0;points=[];autosize=1;strokeColor=none;fillColor=none;strokeWidth=8;fontSize=150;fontFamily=TH Sarabun New;fontStyle=1" vertex="1" parent="WIyWlLk6GJQsqaUBKTNV-1">
          <mxGeometry x="-520" y="8354" width="81" height="192" as="geometry" />
        </mxCell>
        <mxCell id="kMTiL7KlNKNhmvtmHJj9-57" value="" style="ellipse;whiteSpace=wrap;html=1;aspect=fixed;strokeWidth=8;fontSize=108;fontFamily=TH Sarabun New;fontStyle=1" vertex="1" parent="WIyWlLk6GJQsqaUBKTNV-1">
          <mxGeometry x="-1525" y="10661" width="160" height="160" as="geometry" />
        </mxCell>
        <mxCell id="kMTiL7KlNKNhmvtmHJj9-58" value="" style="endArrow=classic;html=1;rounded=0;exitX=0.5;exitY=1;exitDx=0;exitDy=0;strokeWidth=8;entryX=1;entryY=0.5;entryDx=0;entryDy=0;fontSize=108;fontFamily=TH Sarabun New;fontStyle=1" edge="1" parent="WIyWlLk6GJQsqaUBKTNV-1" source="kMTiL7KlNKNhmvtmHJj9-64" target="kMTiL7KlNKNhmvtmHJj9-57">
          <mxGeometry width="50" height="50" relative="1" as="geometry">
            <mxPoint x="-900" y="10961" as="sourcePoint" />
            <mxPoint x="-1200" y="10751" as="targetPoint" />
            <Array as="points">
              <mxPoint x="-355" y="10753" />
            </Array>
          </mxGeometry>
        </mxCell>
        <mxCell id="kMTiL7KlNKNhmvtmHJj9-62" value="&lt;font style=&quot;font-size: 150px;&quot;&gt;&lt;font style=&quot;font-size: 150px;&quot;&gt;ไม่มีผลลัพธ์ &lt;br style=&quot;font-size: 150px;&quot;&gt;หรือ&lt;/font&gt;ห้องเรียน&lt;br style=&quot;font-size: 150px;&quot;&gt;ไม่ว่างในช่วงเวลา&lt;br style=&quot;font-size: 150px;&quot;&gt;ที่อาจารย์ต้องการ&lt;/font&gt;" style="rhombus;whiteSpace=wrap;html=1;strokeWidth=8;fontSize=150;fontFamily=TH Sarabun New;fontStyle=1" vertex="1" parent="WIyWlLk6GJQsqaUBKTNV-1">
          <mxGeometry x="-2179.5" y="8236" width="1479" height="892" as="geometry" />
        </mxCell>
        <mxCell id="kMTiL7KlNKNhmvtmHJj9-64" value="insert ข้อมูลการจองห้องเข้าฐานข้อมูล" style="rounded=0;whiteSpace=wrap;html=1;strokeWidth=8;fontSize=150;fontFamily=TH Sarabun New;fontStyle=1" vertex="1" parent="WIyWlLk6GJQsqaUBKTNV-1">
          <mxGeometry x="-850" y="9871" width="990" height="507" as="geometry" />
        </mxCell>
        <mxCell id="kMTiL7KlNKNhmvtmHJj9-65" value="" style="endArrow=classic;html=1;rounded=0;exitX=0.5;exitY=1;exitDx=0;exitDy=0;entryX=0.5;entryY=0;entryDx=0;entryDy=0;strokeWidth=8;fontSize=150;fontFamily=TH Sarabun New;fontStyle=1" edge="1" parent="WIyWlLk6GJQsqaUBKTNV-1" source="kMTiL7KlNKNhmvtmHJj9-6" target="kMTiL7KlNKNhmvtmHJj9-64">
          <mxGeometry width="50" height="50" relative="1" as="geometry">
            <mxPoint x="-1830" y="10021" as="sourcePoint" />
            <mxPoint x="-1780" y="9971" as="targetPoint" />
          </mxGeometry>
        </mxCell>
        <mxCell id="kMTiL7KlNKNhmvtmHJj9-66" value="&lt;font style=&quot;font-size: 150px;&quot;&gt;&lt;font style=&quot;font-size: 150px;&quot;&gt;Database&amp;nbsp;&lt;br style=&quot;&quot;&gt;Reservation,&lt;br style=&quot;&quot;&gt;Reservation_detail&lt;br style=&quot;font-size: 108px;&quot;&gt;&lt;/font&gt;&lt;/font&gt;" style="shape=cylinder3;whiteSpace=wrap;html=1;boundedLbl=1;backgroundOutline=1;size=15;strokeWidth=8;fontSize=108;fontFamily=TH Sarabun New;fontStyle=1" vertex="1" parent="WIyWlLk6GJQsqaUBKTNV-1">
          <mxGeometry x="333" y="9792" width="902" height="662.5" as="geometry" />
        </mxCell>
        <mxCell id="kMTiL7KlNKNhmvtmHJj9-67" value="" style="endArrow=classic;html=1;rounded=0;dashed=1;entryX=0;entryY=0.5;entryDx=0;entryDy=0;exitX=1;exitY=0.5;exitDx=0;exitDy=0;strokeWidth=8;fontSize=150;entryPerimeter=0;fontFamily=TH Sarabun New;fontStyle=1" edge="1" parent="WIyWlLk6GJQsqaUBKTNV-1" source="kMTiL7KlNKNhmvtmHJj9-64" target="kMTiL7KlNKNhmvtmHJj9-66">
          <mxGeometry width="50" height="50" relative="1" as="geometry">
            <mxPoint x="430" y="10007.5" as="sourcePoint" />
            <mxPoint x="50" y="10018" as="targetPoint" />
          </mxGeometry>
        </mxCell>
        <mxCell id="kMTiL7KlNKNhmvtmHJj9-68" value="&lt;font style=&quot;font-size: 150px;&quot;&gt;&lt;span&gt;บันทึก activity &lt;br&gt;ที่ทำเข้าlog file&lt;/span&gt;&lt;/font&gt;" style="rounded=0;whiteSpace=wrap;html=1;strokeWidth=8;fontSize=108;fontFamily=TH Sarabun New;fontStyle=1" vertex="1" parent="WIyWlLk6GJQsqaUBKTNV-1">
          <mxGeometry x="-2067.5" y="11061" width="1245" height="403" as="geometry" />
        </mxCell>
        <mxCell id="kMTiL7KlNKNhmvtmHJj9-69" value="&lt;font style=&quot;font-size: 150px;&quot;&gt;ระบบรายงานสรุปผลการทำการจองห้องเรียน&lt;/font&gt;" style="rounded=0;whiteSpace=wrap;html=1;strokeWidth=8;fontSize=108;fontFamily=TH Sarabun New;fontStyle=1" vertex="1" parent="WIyWlLk6GJQsqaUBKTNV-1">
          <mxGeometry x="-2294.5" y="11741" width="1704" height="330" as="geometry" />
        </mxCell>
        <mxCell id="kMTiL7KlNKNhmvtmHJj9-70" value="" style="endArrow=classic;html=1;rounded=0;exitX=0.5;exitY=1;exitDx=0;exitDy=0;entryX=0.5;entryY=0;entryDx=0;entryDy=0;strokeWidth=8;fontSize=108;fontFamily=TH Sarabun New;fontStyle=1" edge="1" parent="WIyWlLk6GJQsqaUBKTNV-1" source="kMTiL7KlNKNhmvtmHJj9-57" target="kMTiL7KlNKNhmvtmHJj9-68">
          <mxGeometry width="50" height="50" relative="1" as="geometry">
            <mxPoint x="-830" y="10741" as="sourcePoint" />
            <mxPoint x="-780" y="10691" as="targetPoint" />
          </mxGeometry>
        </mxCell>
        <mxCell id="kMTiL7KlNKNhmvtmHJj9-71" value="" style="endArrow=classic;html=1;rounded=0;exitX=0.5;exitY=1;exitDx=0;exitDy=0;entryX=0.5;entryY=0;entryDx=0;entryDy=0;strokeWidth=8;fontSize=108;fontFamily=TH Sarabun New;fontStyle=1" edge="1" parent="WIyWlLk6GJQsqaUBKTNV-1" source="kMTiL7KlNKNhmvtmHJj9-68" target="kMTiL7KlNKNhmvtmHJj9-69">
          <mxGeometry width="50" height="50" relative="1" as="geometry">
            <mxPoint x="-1446.67" y="11531" as="sourcePoint" />
            <mxPoint x="-1446.67" y="11862" as="targetPoint" />
          </mxGeometry>
        </mxCell>
        <mxCell id="kMTiL7KlNKNhmvtmHJj9-72" value="" style="ellipse;whiteSpace=wrap;html=1;aspect=fixed;strokeWidth=8;fontSize=108;fontFamily=TH Sarabun New;fontStyle=1" vertex="1" parent="WIyWlLk6GJQsqaUBKTNV-1">
          <mxGeometry x="-1522.5" y="12401" width="155" height="155" as="geometry" />
        </mxCell>
        <mxCell id="kMTiL7KlNKNhmvtmHJj9-73" value="" style="ellipse;whiteSpace=wrap;html=1;aspect=fixed;fillColor=#050505;strokeWidth=8;fontSize=108;fontFamily=TH Sarabun New;fontStyle=1" vertex="1" parent="WIyWlLk6GJQsqaUBKTNV-1">
          <mxGeometry x="-1500" y="12423.5" width="110" height="110" as="geometry" />
        </mxCell>
        <mxCell id="kMTiL7KlNKNhmvtmHJj9-74" value="" style="endArrow=classic;html=1;rounded=0;exitX=0.5;exitY=1;exitDx=0;exitDy=0;entryX=0.5;entryY=0;entryDx=0;entryDy=0;strokeWidth=8;fontSize=108;fontFamily=TH Sarabun New;fontStyle=1" edge="1" parent="WIyWlLk6GJQsqaUBKTNV-1" target="kMTiL7KlNKNhmvtmHJj9-72" source="kMTiL7KlNKNhmvtmHJj9-69">
          <mxGeometry width="50" height="50" relative="1" as="geometry">
            <mxPoint x="-1478.37" y="12141" as="sourcePoint" />
            <mxPoint x="-1413.75" y="12422" as="targetPoint" />
          </mxGeometry>
        </mxCell>
        <mxCell id="kMTiL7KlNKNhmvtmHJj9-75" value="" style="endArrow=none;html=1;rounded=0;strokeWidth=8;fontFamily=TH Sarabun New;fontSize=108;fontStyle=1" edge="1" parent="WIyWlLk6GJQsqaUBKTNV-1">
          <mxGeometry width="50" height="50" relative="1" as="geometry">
            <mxPoint x="-2735" y="7119" as="sourcePoint" />
            <mxPoint x="-2735" y="-796" as="targetPoint" />
          </mxGeometry>
        </mxCell>
        <mxCell id="kMTiL7KlNKNhmvtmHJj9-76" value="" style="endArrow=none;html=1;rounded=0;strokeWidth=8;fontFamily=TH Sarabun New;fontSize=108;fontStyle=1" edge="1" parent="WIyWlLk6GJQsqaUBKTNV-1">
          <mxGeometry width="50" height="50" relative="1" as="geometry">
            <mxPoint x="-2741" y="7145" as="sourcePoint" />
            <mxPoint x="962" y="7161" as="targetPoint" />
          </mxGeometry>
        </mxCell>
        <mxCell id="kMTiL7KlNKNhmvtmHJj9-77" value="" style="endArrow=classic;html=1;rounded=0;exitX=0.5;exitY=1;exitDx=0;exitDy=0;strokeWidth=8;entryX=0.5;entryY=0;entryDx=0;entryDy=0;fontSize=108;fontFamily=TH Sarabun New;fontStyle=1" edge="1" parent="WIyWlLk6GJQsqaUBKTNV-1" source="kMTiL7KlNKNhmvtmHJj9-4" target="kMTiL7KlNKNhmvtmHJj9-24">
          <mxGeometry width="50" height="50" relative="1" as="geometry">
            <mxPoint x="-1403" y="-535" as="sourcePoint" />
            <mxPoint x="-1403" y="-368" as="targetPoint" />
          </mxGeometry>
        </mxCell>
        <mxCell id="kMTiL7KlNKNhmvtmHJj9-78" value="" style="endArrow=classic;html=1;rounded=0;exitX=0.5;exitY=1;exitDx=0;exitDy=0;strokeWidth=8;entryX=0.5;entryY=0;entryDx=0;entryDy=0;fontSize=150;fontFamily=TH Sarabun New;fontStyle=1" edge="1" parent="WIyWlLk6GJQsqaUBKTNV-1" source="kMTiL7KlNKNhmvtmHJj9-3" target="kMTiL7KlNKNhmvtmHJj9-4">
          <mxGeometry width="50" height="50" relative="1" as="geometry">
            <mxPoint x="-761" y="-2085" as="sourcePoint" />
            <mxPoint x="-761" y="-1918" as="targetPoint" />
          </mxGeometry>
        </mxCell>
        <mxCell id="kMTiL7KlNKNhmvtmHJj9-79" value="" style="endArrow=classic;html=1;rounded=0;exitX=0.5;exitY=1;exitDx=0;exitDy=0;strokeWidth=8;entryX=0.5;entryY=0;entryDx=0;entryDy=0;fontSize=150;fontFamily=TH Sarabun New;fontStyle=1" edge="1" parent="WIyWlLk6GJQsqaUBKTNV-1" source="kMTiL7KlNKNhmvtmHJj9-7" target="kMTiL7KlNKNhmvtmHJj9-3">
          <mxGeometry width="50" height="50" relative="1" as="geometry">
            <mxPoint x="-1401" y="-2425" as="sourcePoint" />
            <mxPoint x="-1401" y="-2258" as="targetPoint" />
          </mxGeometry>
        </mxCell>
        <mxCell id="kMTiL7KlNKNhmvtmHJj9-80" value="" style="endArrow=classic;html=1;rounded=0;exitX=0.5;exitY=1;exitDx=0;exitDy=0;strokeWidth=8;entryX=0.5;entryY=0;entryDx=0;entryDy=0;fontSize=150;fontFamily=TH Sarabun New;fontStyle=1" edge="1" parent="WIyWlLk6GJQsqaUBKTNV-1" source="kMTiL7KlNKNhmvtmHJj9-33" target="kMTiL7KlNKNhmvtmHJj9-46">
          <mxGeometry width="50" height="50" relative="1" as="geometry">
            <mxPoint x="-1260" y="2750" as="sourcePoint" />
            <mxPoint x="-1260" y="3000" as="targetPoint" />
          </mxGeometry>
        </mxCell>
        <mxCell id="kMTiL7KlNKNhmvtmHJj9-81" value="" style="endArrow=classic;html=1;rounded=0;exitX=0.5;exitY=1;exitDx=0;exitDy=0;strokeWidth=8;entryX=0.5;entryY=0;entryDx=0;entryDy=0;fontSize=108;fontFamily=TH Sarabun New;fontStyle=1" edge="1" parent="WIyWlLk6GJQsqaUBKTNV-1" source="kMTiL7KlNKNhmvtmHJj9-30" target="kMTiL7KlNKNhmvtmHJj9-33">
          <mxGeometry width="50" height="50" relative="1" as="geometry">
            <mxPoint x="-1220" y="2220" as="sourcePoint" />
            <mxPoint x="-1220" y="2470" as="targetPoint" />
          </mxGeometry>
        </mxCell>
        <mxCell id="kMTiL7KlNKNhmvtmHJj9-82" value="" style="endArrow=classic;html=1;rounded=0;exitX=0.5;exitY=1;exitDx=0;exitDy=0;strokeWidth=8;entryX=0.5;entryY=0;entryDx=0;entryDy=0;fontSize=150;fontFamily=TH Sarabun New;fontStyle=1" edge="1" parent="WIyWlLk6GJQsqaUBKTNV-1" source="kMTiL7KlNKNhmvtmHJj9-27" target="kMTiL7KlNKNhmvtmHJj9-30">
          <mxGeometry width="50" height="50" relative="1" as="geometry">
            <mxPoint x="-1283" y="584" as="sourcePoint" />
            <mxPoint x="-1283" y="834" as="targetPoint" />
          </mxGeometry>
        </mxCell>
        <mxCell id="kMTiL7KlNKNhmvtmHJj9-83" value="" style="endArrow=classic;html=1;rounded=0;exitX=0.5;exitY=1;exitDx=0;exitDy=0;strokeWidth=8;entryX=0.5;entryY=0;entryDx=0;entryDy=0;fontSize=150;fontFamily=TH Sarabun New;fontStyle=1" edge="1" parent="WIyWlLk6GJQsqaUBKTNV-1" source="kMTiL7KlNKNhmvtmHJj9-24" target="kMTiL7KlNKNhmvtmHJj9-27">
          <mxGeometry width="50" height="50" relative="1" as="geometry">
            <mxPoint x="-1413" y="22" as="sourcePoint" />
            <mxPoint x="-1413" y="272" as="targetPoint" />
          </mxGeometry>
        </mxCell>
        <mxCell id="kMTiL7KlNKNhmvtmHJj9-84" value="" style="endArrow=classic;html=1;rounded=0;exitX=0.5;exitY=1;exitDx=0;exitDy=0;strokeWidth=8;entryX=0.5;entryY=0;entryDx=0;entryDy=0;fontSize=108;fontFamily=TH Sarabun New;fontStyle=1" edge="1" parent="WIyWlLk6GJQsqaUBKTNV-1" source="kMTiL7KlNKNhmvtmHJj9-43" target="kMTiL7KlNKNhmvtmHJj9-96">
          <mxGeometry width="50" height="50" relative="1" as="geometry">
            <mxPoint x="-1350" y="5050" as="sourcePoint" />
            <mxPoint x="-1432.5" y="5011" as="targetPoint" />
          </mxGeometry>
        </mxCell>
        <mxCell id="kMTiL7KlNKNhmvtmHJj9-85" value="" style="endArrow=classic;html=1;rounded=0;exitX=0.5;exitY=1;exitDx=0;exitDy=0;strokeWidth=8;entryX=0.5;entryY=0;entryDx=0;entryDy=0;fontSize=150;fontFamily=TH Sarabun New;fontStyle=1" edge="1" parent="WIyWlLk6GJQsqaUBKTNV-1" source="kMTiL7KlNKNhmvtmHJj9-39" target="kMTiL7KlNKNhmvtmHJj9-43">
          <mxGeometry width="50" height="50" relative="1" as="geometry">
            <mxPoint x="-1310" y="4350" as="sourcePoint" />
            <mxPoint x="-1310" y="4580" as="targetPoint" />
          </mxGeometry>
        </mxCell>
        <mxCell id="kMTiL7KlNKNhmvtmHJj9-86" value="" style="endArrow=classic;html=1;rounded=0;exitX=0.5;exitY=1;exitDx=0;exitDy=0;strokeWidth=8;entryX=0.5;entryY=0;entryDx=0;entryDy=0;fontSize=108;fontFamily=TH Sarabun New;fontStyle=1" edge="1" parent="WIyWlLk6GJQsqaUBKTNV-1" source="kMTiL7KlNKNhmvtmHJj9-95" target="kMTiL7KlNKNhmvtmHJj9-39">
          <mxGeometry width="50" height="50" relative="1" as="geometry">
            <mxPoint x="-1407.5" y="3702" as="sourcePoint" />
            <mxPoint x="-1410" y="4170" as="targetPoint" />
          </mxGeometry>
        </mxCell>
        <mxCell id="kMTiL7KlNKNhmvtmHJj9-87" value="" style="endArrow=classic;html=1;rounded=0;exitX=0.5;exitY=1;exitDx=0;exitDy=0;strokeWidth=8;entryX=0.5;entryY=0;entryDx=0;entryDy=0;fontSize=150;fontFamily=TH Sarabun New;fontStyle=1" edge="1" parent="WIyWlLk6GJQsqaUBKTNV-1" source="kMTiL7KlNKNhmvtmHJj9-46" target="kMTiL7KlNKNhmvtmHJj9-95">
          <mxGeometry width="50" height="50" relative="1" as="geometry">
            <mxPoint x="-1310" y="3470" as="sourcePoint" />
            <mxPoint x="-1407.5" y="3372" as="targetPoint" />
          </mxGeometry>
        </mxCell>
        <mxCell id="kMTiL7KlNKNhmvtmHJj9-88" value="" style="endArrow=classic;html=1;rounded=0;exitX=0.5;exitY=1;exitDx=0;exitDy=0;strokeWidth=8;entryX=0.5;entryY=0;entryDx=0;entryDy=0;fontSize=108;fontFamily=TH Sarabun New;fontStyle=1;" edge="1" parent="WIyWlLk6GJQsqaUBKTNV-1" source="kMTiL7KlNKNhmvtmHJj9-96" target="kMTiL7KlNKNhmvtmHJj9-48">
          <mxGeometry width="50" height="50" relative="1" as="geometry">
            <mxPoint x="-1432.5" y="5630.999999999998" as="sourcePoint" />
            <mxPoint x="-1371.5" y="5981" as="targetPoint" />
          </mxGeometry>
        </mxCell>
        <mxCell id="kMTiL7KlNKNhmvtmHJj9-89" value="" style="endArrow=classic;html=1;rounded=0;exitX=0.5;exitY=1;exitDx=0;exitDy=0;strokeWidth=8;entryX=0.5;entryY=0;entryDx=0;entryDy=0;fontSize=108;fontFamily=TH Sarabun New;fontStyle=1" edge="1" parent="WIyWlLk6GJQsqaUBKTNV-1" source="kMTiL7KlNKNhmvtmHJj9-49" target="kMTiL7KlNKNhmvtmHJj9-62">
          <mxGeometry width="50" height="50" relative="1" as="geometry">
            <mxPoint x="-770" y="7360" as="sourcePoint" />
            <mxPoint x="-770" y="7609" as="targetPoint" />
          </mxGeometry>
        </mxCell>
        <mxCell id="kMTiL7KlNKNhmvtmHJj9-90" value="" style="endArrow=classic;html=1;rounded=0;exitX=0.481;exitY=1.017;exitDx=0;exitDy=0;strokeWidth=8;entryX=0.5;entryY=0;entryDx=0;entryDy=0;fontSize=108;fontFamily=TH Sarabun New;fontStyle=1;exitPerimeter=0;" edge="1" parent="WIyWlLk6GJQsqaUBKTNV-1" source="kMTiL7KlNKNhmvtmHJj9-48" target="kMTiL7KlNKNhmvtmHJj9-49">
          <mxGeometry width="50" height="50" relative="1" as="geometry">
            <mxPoint x="-1380" y="6610" as="sourcePoint" />
            <mxPoint x="-1200" y="6770" as="targetPoint" />
          </mxGeometry>
        </mxCell>
        <mxCell id="kMTiL7KlNKNhmvtmHJj9-91" value="&lt;font style=&quot;font-size: 200px;&quot;&gt;Atomic Transaction&lt;/font&gt;" style="text;html=1;align=center;verticalAlign=middle;resizable=0;points=[];autosize=1;strokeColor=none;fillColor=none;rotation=-90;strokeWidth=8;fontFamily=TH Sarabun New;fontSize=108;fontStyle=1" vertex="1" parent="WIyWlLk6GJQsqaUBKTNV-1">
          <mxGeometry x="-2982" y="2716" width="1255" height="252" as="geometry" />
        </mxCell>
        <mxCell id="kMTiL7KlNKNhmvtmHJj9-95" value="&lt;font face=&quot;TH Sarabun New&quot; style=&quot;font-size: 150px;&quot;&gt;&lt;b&gt;ระบบดึงข้อมูลห้องทั้งหมดที่ตรงกับชนิดห้องเเละความจุที่ user ระบุ&lt;/b&gt;&lt;/font&gt;" style="rounded=0;whiteSpace=wrap;html=1;strokeWidth=8;" vertex="1" parent="WIyWlLk6GJQsqaUBKTNV-1">
          <mxGeometry x="-1936.75" y="2978" width="1103" height="557" as="geometry" />
        </mxCell>
        <mxCell id="kMTiL7KlNKNhmvtmHJj9-96" value="&lt;p style=&quot;font-size: 150px;&quot; class=&quot;MsoNormal&quot;&gt;ระบบสร้าง array 2มิติ เก็บผลลัพธ์วันเเละเวลาที่ได้จากการหาวันที่ห้องเรียนทั้งหมดที่ตรงกับชนิดห้องเเละความจุ&lt;/p&gt;&lt;p style=&quot;text-align: justify; font-size: 150px;&quot; class=&quot;MsoNormal&quot;&gt;&lt;span style=&quot;font-size: 150px;&quot;&gt;&lt;/span&gt;&lt;/p&gt;" style="rounded=0;whiteSpace=wrap;html=1;strokeWidth=8;fontSize=150;fontFamily=TH Sarabun New;fontStyle=1" vertex="1" parent="WIyWlLk6GJQsqaUBKTNV-1">
          <mxGeometry x="-2243" y="5079" width="1696" height="579" as="geometry" />
        </mxCell>
      </root>
    </mxGraphModel>
  </diagram>
</mxfile>
